<?xml version="1.0" encoding="utf-8"?>
<!-- Generator: Adobe Illustrator 18.0.0, SVG Export Plug-In . SVG Version: 6.00 Build 0)  -->
<!DOCTYPE svg PUBLIC "-//W3C//DTD SVG 1.1//EN" "http://www.w3.org/Graphics/SVG/1.1/DTD/svg11.dtd">
<svg version="1.1" id="Calque_1" xmlns="http://www.w3.org/2000/svg" xmlns:xlink="http://www.w3.org/1999/xlink" x="0px" y="0px"
	 viewBox="-2 -1.9 14.3 21.4" enable-background="new -2 -1.9 14.3 21.4" xml:space="preserve">
<path fill="none" stroke="#B59E5C" stroke-miterlimit="10" d="M10.1,4.7c0,2.4-2,3.9-3.8,4.4v1c0,0.8-0.7,1.5-1.6,1.5
	c-1,0-1.6-0.7-1.6-1.5l0-2c0-0.7,0.4-1.2,1.2-1.5c1.5-0.5,2.4-1,2.4-2c0-1.3-1.3-1.5-2-1.3C3.7,3.6,3.1,4.2,2.6,4.6
	C1.9,5.1,1,4.9,0.5,4.3C0,3.6,0.1,2.6,0.8,2.1C1.7,1.3,3.2,0,6,0.2C8.4,0.4,10.1,2.5,10.1,4.7z"/>
<circle fill="none" stroke="#B59E5C" stroke-miterlimit="10" cx="4.7" cy="15.4" r="1.7"/>
</svg>
