<?xml version="1.0" encoding="utf-8"?>
<!-- Generator: Adobe Illustrator 18.0.0, SVG Export Plug-In . SVG Version: 6.00 Build 0)  -->
<!DOCTYPE svg PUBLIC "-//W3C//DTD SVG 1.1//EN" "http://www.w3.org/Graphics/SVG/1.1/DTD/svg11.dtd">
<svg version="1.1" id="Calque_1" xmlns="http://www.w3.org/2000/svg" xmlns:xlink="http://www.w3.org/1999/xlink" x="0px" y="0px"
	 viewBox="-2.3 -2.4 14.8 22" enable-background="new -2.3 -2.4 14.8 22" xml:space="preserve">
<path fill="#B59E5C" stroke="#B59E5C" stroke-miterlimit="10" d="M5.3,2.7V0.6c0-0.2-0.2-0.4-0.4-0.4h-2c-0.2,0-0.4,0.2-0.4,0.4v2
	C1.1,2.9,0.1,3.8,0.1,4.9v12c0,0.2,0.2,0.4,0.4,0.4h6.8c0.2,0,0.4-0.2,0.4-0.4v-12C7.6,3.8,6.7,3,5.3,2.7 M3.3,1h1.3v1.5H3.3
	C3.3,2.5,3.3,1,3.3,1z M3.9,3.2c1.4,0,2.7,0.6,3,1.3H0.9C1.2,3.8,2.4,3.2,3.9,3.2 M6.9,16.5H0.8V5.2h6.1L6.9,16.5L6.9,16.5z"/>
<path fill="none" stroke="#B59E5C" stroke-miterlimit="10" d="M5.3,2.7V0.6c0-0.2-0.2-0.4-0.4-0.4h-2c-0.2,0-0.4,0.2-0.4,0.4v2
	C1.1,2.9,0.1,3.8,0.1,4.9v12c0,0.2,0.2,0.4,0.4,0.4h6.8c0.2,0,0.4-0.2,0.4-0.4v-12C7.6,3.8,6.7,3,5.3,2.7z M3.3,1h1.3v1.5H3.3
	C3.3,2.5,3.3,1,3.3,1z M3.9,3.2c1.4,0,2.7,0.6,3,1.3H0.9C1.2,3.8,2.4,3.2,3.9,3.2z M6.9,16.5H0.8V5.2h6.1L6.9,16.5L6.9,16.5z"/>
<path fill="#B59E5C" stroke="#B59E5C" stroke-miterlimit="10" d="M1.4,6.4h5c0.2,0,0.4-0.2,0.4-0.4S6.6,5.7,6.4,5.7h-5
	C1.2,5.7,1,5.8,1,6S1.2,6.4,1.4,6.4"/>
<path fill="none" stroke="#B59E5C" stroke-miterlimit="10" d="M1.4,6.4h5c0.2,0,0.4-0.2,0.4-0.4S6.6,5.7,6.4,5.7h-5
	C1.2,5.7,1,5.8,1,6S1.2,6.4,1.4,6.4z"/>
<path fill="#B59E5C" stroke="#B59E5C" stroke-miterlimit="10" d="M10,1.4C10,1.3,9.9,1.3,9.8,1.3c-0.1,0-0.2,0-0.2,0.1
	C9.5,1.4,9.4,1.5,9.4,1.6s0,0.2,0.1,0.3C9.6,1.9,9.7,2,9.8,2c0.1,0,0.2,0,0.3-0.1c0.1-0.1,0.1-0.2,0.1-0.3S10.1,1.4,10,1.4"/>
<path fill="none" stroke="#B59E5C" stroke-miterlimit="10" d="M10,1.4C10,1.3,9.9,1.3,9.8,1.3c-0.1,0-0.2,0-0.2,0.1
	C9.5,1.4,9.4,1.5,9.4,1.6s0,0.2,0.1,0.3C9.6,1.9,9.7,2,9.8,2c0.1,0,0.2,0,0.3-0.1c0.1-0.1,0.1-0.2,0.1-0.3S10.1,1.4,10,1.4z"/>
<path fill="#B59E5C" stroke="#B59E5C" stroke-miterlimit="10" d="M8.6,1.3c-0.1,0-0.2,0-0.3,0.1C8.3,1.4,8.3,1.5,8.3,1.6
	c0,0.1,0,0.2,0.1,0.3S8.5,2,8.6,2c0.1,0,0.2,0,0.3-0.1C8.9,1.8,9,1.7,9,1.6c0-0.1,0-0.2-0.1-0.3C8.8,1.3,8.7,1.3,8.6,1.3"/>
<path fill="none" stroke="#B59E5C" stroke-miterlimit="10" d="M8.6,1.3c-0.1,0-0.2,0-0.3,0.1C8.3,1.4,8.3,1.5,8.3,1.6
	c0,0.1,0,0.2,0.1,0.3S8.5,2,8.6,2c0.1,0,0.2,0,0.3-0.1C8.9,1.8,9,1.7,9,1.6c0-0.1,0-0.2-0.1-0.3C8.8,1.3,8.7,1.3,8.6,1.3z"/>
<path fill="#B59E5C" stroke="#B59E5C" stroke-miterlimit="10" d="M9.6,0.8c0.1,0,0.2,0,0.3-0.1C9.9,0.6,10,0.6,10,0.5
	c0-0.1,0-0.2-0.1-0.3C9.8,0.1,9.7,0.1,9.6,0.1s-0.2,0-0.3,0.1C9.3,0.3,9.2,0.4,9.2,0.5c0,0.1,0,0.2,0.1,0.3S9.5,0.8,9.6,0.8"/>
<path fill="none" stroke="#B59E5C" stroke-miterlimit="10" d="M9.6,0.8c0.1,0,0.2,0,0.3-0.1C9.9,0.6,10,0.6,10,0.5
	c0-0.1,0-0.2-0.1-0.3C9.8,0.1,9.7,0.1,9.6,0.1s-0.2,0-0.3,0.1C9.3,0.3,9.2,0.4,9.2,0.5c0,0.1,0,0.2,0.1,0.3S9.5,0.8,9.6,0.8z"/>
<path fill="#B59E5C" stroke="#B59E5C" stroke-miterlimit="10" d="M8.4,1.2c0.1,0,0.2,0,0.3-0.1C8.7,1.1,8.8,1,8.8,0.9s0-0.2-0.1-0.3
	C8.6,0.6,8.5,0.5,8.4,0.5c-0.1,0-0.2,0-0.3,0.1C8.1,0.7,8,0.8,8,0.9s0,0.2,0.1,0.3C8.2,1.2,8.3,1.2,8.4,1.2"/>
<path fill="none" stroke="#B59E5C" stroke-miterlimit="10" d="M8.4,1.2c0.1,0,0.2,0,0.3-0.1C8.7,1.1,8.8,1,8.8,0.9s0-0.2-0.1-0.3
	C8.6,0.6,8.5,0.5,8.4,0.5c-0.1,0-0.2,0-0.3,0.1C8.1,0.7,8,0.8,8,0.9s0,0.2,0.1,0.3C8.2,1.2,8.3,1.2,8.4,1.2z"/>
<path fill="#B59E5C" stroke="#B59E5C" stroke-miterlimit="10" d="M9.6,2.5c-0.1,0-0.2,0-0.3,0.1C9.3,2.6,9.2,2.7,9.2,2.8
	c0,0.1,0,0.2,0.1,0.3s0.2,0.1,0.3,0.1c0.1,0,0.2,0,0.3-0.1C9.9,3,10,2.9,10,2.8s0-0.2-0.1-0.3C9.8,2.5,9.7,2.5,9.6,2.5"/>
<path fill="none" stroke="#B59E5C" stroke-miterlimit="10" d="M9.6,2.5c-0.1,0-0.2,0-0.3,0.1C9.3,2.6,9.2,2.7,9.2,2.8
	c0,0.1,0,0.2,0.1,0.3s0.2,0.1,0.3,0.1c0.1,0,0.2,0,0.3-0.1C9.9,3,10,2.9,10,2.8s0-0.2-0.1-0.3C9.8,2.5,9.7,2.5,9.6,2.5z"/>
<path fill="#B59E5C" stroke="#B59E5C" stroke-miterlimit="10" d="M8.4,2.1c-0.1,0-0.2,0-0.3,0.1C8.1,2.2,8,2.3,8,2.4s0,0.2,0.1,0.3
	c0.1,0.1,0.2,0.1,0.3,0.1c0.1,0,0.2,0,0.3-0.1c0.1-0.1,0.1-0.2,0.1-0.3s0-0.2-0.1-0.3S8.5,2.1,8.4,2.1"/>
<path fill="none" stroke="#B59E5C" stroke-miterlimit="10" d="M8.4,2.1c-0.1,0-0.2,0-0.3,0.1C8.1,2.2,8,2.3,8,2.4s0,0.2,0.1,0.3
	c0.1,0.1,0.2,0.1,0.3,0.1c0.1,0,0.2,0,0.3-0.1c0.1-0.1,0.1-0.2,0.1-0.3s0-0.2-0.1-0.3S8.5,2.1,8.4,2.1z"/>
<path fill="#B59E5C" stroke="#B59E5C" stroke-miterlimit="10" d="M7.6,1.8L7.2,1.6l0.4-0.1c0.2-0.1,0.3-0.3,0.2-0.5
	C7.8,0.9,7.6,0.8,7.4,0.9L6.1,1.3C5.9,1.3,5.8,1.5,5.8,1.6C5.8,1.8,5.9,2,6.1,2l1.3,0.4c0,0,0.1,0,0.1,0c0.1,0,0.3-0.1,0.3-0.2
	C7.9,2,7.8,1.8,7.6,1.8"/>
<path fill="none" stroke="#B59E5C" stroke-miterlimit="10" d="M7.6,1.8L7.2,1.6l0.4-0.1c0.2-0.1,0.3-0.3,0.2-0.5
	C7.8,0.9,7.6,0.8,7.4,0.9L6.1,1.3C5.9,1.3,5.8,1.5,5.8,1.6C5.8,1.8,5.9,2,6.1,2l1.3,0.4c0,0,0.1,0,0.1,0c0.1,0,0.3-0.1,0.3-0.2
	C7.9,2,7.8,1.8,7.6,1.8z"/>
</svg>
