<?xml version="1.0" encoding="utf-8"?>
<!-- Generator: Adobe Illustrator 18.0.0, SVG Export Plug-In . SVG Version: 6.00 Build 0)  -->
<!DOCTYPE svg PUBLIC "-//W3C//DTD SVG 1.1//EN" "http://www.w3.org/Graphics/SVG/1.1/DTD/svg11.dtd">
<svg version="1.1" id="Calque_1" xmlns="http://www.w3.org/2000/svg" xmlns:xlink="http://www.w3.org/1999/xlink" x="0px" y="0px"
	 viewBox="0 0 595.3 841.9" enable-background="new 0 0 595.3 841.9" xml:space="preserve">
<path fill="#B59E5C" d="M303,192.8v-80.4c0-7.7-7.7-15.3-15.3-15.3h-76.5c-7.7,0-15.3,7.7-15.3,15.3v76.5
	c-53.6,11.5-91.8,45.9-91.8,88v459.2c0,7.7,7.7,15.3,15.3,15.3h260.2c7.7,0,15.3-7.7,15.3-15.3V277C391,234.9,356.6,204.2,303,192.8
	 M226.5,127.7h49.7v57.4h-49.7V127.7z M249.4,211.9c53.6,0,103.3,23,114.8,49.7H134.6C146.1,234.9,192,211.9,249.4,211.9
	 M364.2,720.9H130.8V288.4h233.4V720.9L364.2,720.9z"/>
<path fill="none" d="M303,192.8v-80.4c0-7.7-7.7-15.3-15.3-15.3h-76.5c-7.7,0-15.3,7.7-15.3,15.3v76.5c-53.6,11.5-91.8,45.9-91.8,88
	v459.2c0,7.7,7.7,15.3,15.3,15.3h260.2c7.7,0,15.3-7.7,15.3-15.3V277C391,234.9,356.6,204.2,303,192.8z M226.5,127.7h49.7v57.4
	h-49.7V127.7z M249.4,211.9c53.6,0,103.3,23,114.8,49.7H134.6C146.1,234.9,192,211.9,249.4,211.9z M364.2,720.9H130.8V288.4h233.4
	V720.9L364.2,720.9z"/>
<path fill="#B59E5C" d="M153.7,334.4h191.3c7.7,0,15.3-7.7,15.3-15.3c0-7.7-7.7-11.5-15.3-11.5H153.7c-7.7,0-15.3,3.8-15.3,11.5
	S146.1,334.4,153.7,334.4"/>
<path fill="none" d="M153.7,334.4h191.3c7.7,0,15.3-7.7,15.3-15.3c0-7.7-7.7-11.5-15.3-11.5H153.7c-7.7,0-15.3,3.8-15.3,11.5
	S146.1,334.4,153.7,334.4z"/>
<path fill="#B59E5C" d="M482.9,143c0-3.8-3.8-3.8-7.7-3.8c-3.8,0-7.7,0-7.7,3.8c-3.8,0-7.7,3.8-7.7,7.7s0,7.7,3.8,11.5
	c3.8,0,7.7,3.8,11.5,3.8s7.7,0,11.5-3.8s3.8-7.7,3.8-11.5C490.5,146.8,486.7,143,482.9,143"/>
<path fill="none" d="M482.9,143c0-3.8-3.8-3.8-7.7-3.8c-3.8,0-7.7,0-7.7,3.8c-3.8,0-7.7,3.8-7.7,7.7s0,7.7,3.8,11.5
	c3.8,0,7.7,3.8,11.5,3.8s7.7,0,11.5-3.8s3.8-7.7,3.8-11.5C490.5,146.8,486.7,143,482.9,143z"/>
<path fill="#B59E5C" d="M429.3,139.2c-3.8,0-7.7,0-11.5,3.8c0,0,0,3.8,0,7.7s0,7.7,3.8,11.5s3.8,3.8,7.7,3.8s7.7,0,11.5-3.8
	c0-3.8,3.8-7.7,3.8-11.5s0-7.7-3.8-11.5C436.9,139.2,433.1,139.2,429.3,139.2"/>
<path fill="none" d="M429.3,139.2c-3.8,0-7.7,0-11.5,3.8c0,0,0,3.8,0,7.7s0,7.7,3.8,11.5s3.8,3.8,7.7,3.8s7.7,0,11.5-3.8
	c0-3.8,3.8-7.7,3.8-11.5s0-7.7-3.8-11.5C436.9,139.2,433.1,139.2,429.3,139.2z"/>
<path fill="#B59E5C" d="M467.5,120.1c3.8,0,7.7,0,11.5-3.8c0-3.8,3.8-3.8,3.8-7.7s0-7.7-3.8-11.5c-3.8-3.8-7.7-3.8-11.5-3.8
	s-7.7,0-11.5,3.8c0,3.8-3.8,7.7-3.8,11.5s0,7.7,3.8,11.5C459.9,123.9,463.7,120.1,467.5,120.1"/>
<path fill="none" d="M467.5,120.1c3.8,0,7.7,0,11.5-3.8c0-3.8,3.8-3.8,3.8-7.7s0-7.7-3.8-11.5c-3.8-3.8-7.7-3.8-11.5-3.8
	s-7.7,0-11.5,3.8c0,3.8-3.8,7.7-3.8,11.5s0,7.7,3.8,11.5C459.9,123.9,463.7,120.1,467.5,120.1z"/>
<path fill="#B59E5C" d="M421.6,135.4c3.8,0,7.7,0,11.5-3.8c0,0,3.8-3.8,3.8-7.7s0-7.7-3.8-11.5c-3.8,0-7.7-3.8-11.5-3.8
	c-3.8,0-7.7,0-11.5,3.8c0,3.8-3.8,7.7-3.8,11.5c0,3.8,0,7.7,3.8,11.5C414,135.4,417.8,135.4,421.6,135.4"/>
<path fill="none" d="M421.6,135.4c3.8,0,7.7,0,11.5-3.8c0,0,3.8-3.8,3.8-7.7s0-7.7-3.8-11.5c-3.8,0-7.7-3.8-11.5-3.8
	c-3.8,0-7.7,0-11.5,3.8c0,3.8-3.8,7.7-3.8,11.5c0,3.8,0,7.7,3.8,11.5C414,135.4,417.8,135.4,421.6,135.4z"/>
<path fill="#B59E5C" d="M467.5,185.1c-3.8,0-7.7,0-11.5,3.8c0,0-3.8,3.8-3.8,7.7c0,3.8,0,7.7,3.8,11.5c3.8,3.8,7.7,3.8,11.5,3.8
	s7.7,0,11.5-3.8c0-3.8,3.8-7.7,3.8-11.5c0-3.8,0-7.7-3.8-11.5C475.2,185.1,471.4,185.1,467.5,185.1"/>
<path fill="none" d="M467.5,185.1c-3.8,0-7.7,0-11.5,3.8c0,0-3.8,3.8-3.8,7.7c0,3.8,0,7.7,3.8,11.5c3.8,3.8,7.7,3.8,11.5,3.8
	s7.7,0,11.5-3.8c0-3.8,3.8-7.7,3.8-11.5c0-3.8,0-7.7-3.8-11.5C475.2,185.1,471.4,185.1,467.5,185.1z"/>
<path fill="#B59E5C" d="M421.6,169.8c-3.8,0-7.7,0-11.5,3.8c0,0-3.8,3.8-3.8,7.7c0,3.8,0,7.7,3.8,11.5c3.8,3.8,7.7,3.8,11.5,3.8
	s7.7,0,11.5-3.8s3.8-7.7,3.8-11.5s0-7.7-3.8-11.5S425.5,169.8,421.6,169.8"/>
<path fill="none" d="M421.6,169.8c-3.8,0-7.7,0-11.5,3.8c0,0-3.8,3.8-3.8,7.7c0,3.8,0,7.7,3.8,11.5c3.8,3.8,7.7,3.8,11.5,3.8
	s7.7,0,11.5-3.8s3.8-7.7,3.8-11.5s0-7.7-3.8-11.5S425.5,169.8,421.6,169.8z"/>
<path fill="#B59E5C" d="M391,158.3l-15.3-7.7l15.3-3.8c7.7-3.8,11.5-11.5,7.7-19.1c0-3.8-7.7-7.7-15.3-3.8l-49.7,15.3
	c-7.7,0-11.5,7.7-11.5,11.5c0,7.7,3.8,15.3,11.5,15.3l49.7,15.3h3.8c3.8,0,11.5-3.8,11.5-7.7C402.5,166,398.7,158.3,391,158.3"/>
<path fill="none" d="M391,158.3l-15.3-7.7l15.3-3.8c7.7-3.8,11.5-11.5,7.7-19.1c0-3.8-7.7-7.7-15.3-3.8l-49.7,15.3
	c-7.7,0-11.5,7.7-11.5,11.5c0,7.7,3.8,15.3,11.5,15.3l49.7,15.3h3.8c3.8,0,11.5-3.8,11.5-7.7C402.5,166,398.7,158.3,391,158.3z"/>
</svg>
