<?xml version="1.0" encoding="utf-8"?>
<!-- Generator: Adobe Illustrator 18.0.0, SVG Export Plug-In . SVG Version: 6.00 Build 0)  -->
<!DOCTYPE svg PUBLIC "-//W3C//DTD SVG 1.1//EN" "http://www.w3.org/Graphics/SVG/1.1/DTD/svg11.dtd">
<svg version="1.1" id="Calque_1" xmlns="http://www.w3.org/2000/svg" xmlns:xlink="http://www.w3.org/1999/xlink" x="0px" y="0px"
	 viewBox="0 0 34.5 101.5" enable-background="new 0 0 34.5 101.5" xml:space="preserve">
<g>
	<path fill="#FFFFFF" d="M18.6,101.3c3.2-0.2,8.2-0.6,10.7-1.9c2.6-1.3,3.8-2.3,4.4-3.1l0.6-0.8l0.2-78.8c0,0-0.1-0.4-0.9-1
		c-1.7-1.1-2.7-1-2.7-1s-0.6-3.9-3.5-5.7c-2.9-1.8-5.2-1.4-5.2-1.4L22,5.9l-0.6-0.3l-0.5-5.2c0,0-0.6,0-1.1,0
		c-0.5,0-0.6,0.2-2.7,0.2c-2.1,0-2.9-0.9-3.3-0.5c-0.5,0.5-0.6,5.4-0.6,5.4s-0.6-1-0.8,0.2C12.3,6.8,12.3,8,12.3,8s-5,0.4-6.5,2.3
		c-1.5,2-2.1,4.8-2.1,4.8s-2-0.2-3,1C-0.1,16.9,0,18.6,0,18.6l0.2,76.2c0,0,3.2,3.7,6.7,5c3.5,1.3,7.3,1.2,9.1,1.5
		C17.9,101.7,18.6,101.3,18.6,101.3"/>
	<path fill="#010202" d="M30.1,18.5V94c0,0-0.9,1.6-1.9,2.1c-1,0.5-3,1.2-3,1.2V16.5l2,0.4l1.8,0.8L30.1,18.5z"/>
</g>
</svg>
