<svg xmlns="http://www.w3.org/2000/svg" xmlns:xlink="http://www.w3.org/1999/xlink" version="1.1" id="Calque_1" x="0px" y="0px" viewBox="0 0 250 100" enable-background="new 0 0 250 100" xml:space="preserve">
  <text transform="matrix(1 0 0 1 16 62.8193)">
    <tspan x="0" y="0" fill="#B59E5B" font-family="'Uni Sans Thin'" font-size="40">
      A
    </tspan>
    <tspan x="24" y="0" fill="#B59E5B" font-family="'Uni Sans Thin'" font-size="40">
      R
    </tspan>
    <tspan x="47.9" y="0" fill="#B59E5B" font-family="'Uni Sans Thin'" font-size="40">
      T
    </tspan>
  </text>
  <text transform="matrix(1 0 0 1 85.48 62.8193)" fill="#FFFFFF" font-family="'Uni Sans Heavy'" font-size="40">
    FINDER
  </text>
  <defs>
    <rect id="SVGID_1_" x="106" y="74.1" width="82.3" height="25.9"/>
  </defs>
  <clipPath id="SVGID_2_">
    <use xlink:href="#SVGID_1_" overflow="visible"/>
  </clipPath>
  <path fill="#FFFFFF" d="M115.1 63.6c1-0.1 2.6-0.2 3.5-0.6 0.8-0.4 1.2-0.7 1.4-1l0.2-0.3 0.1-25.4c0 0 0-0.1-0.3-0.3 -0.5-0.4-0.9-0.3-0.9-0.3s-0.2-1.3-1.1-1.8c-0.9-0.6-1.7-0.5-1.7-0.5l-0.1-0.6 -0.2-0.1 -0.2-1.7c0 0-0.2 0-0.3 0 -0.1 0-0.2 0.1-0.9 0.1 -0.7 0-0.9-0.3-1.1-0.1 -0.1 0.2-0.2 1.7-0.2 1.7s-0.2-0.3-0.2 0.1c0 0.4 0 0.7 0 0.7s-1.6 0.1-2.1 0.8c-0.5 0.6-0.7 1.5-0.7 1.5s-0.6-0.1-1 0.3c-0.3 0.3-0.2 0.8-0.2 0.8l0.1 24.6c0 0 1 1.2 2.2 1.6 1.1 0.4 2.3 0.4 2.9 0.5C114.9 63.7 115.1 63.6 115.1 63.6"/>
  <path fill="#010202" d="M118.8 36.9v24.3c0 0-0.3 0.5-0.6 0.7 -0.3 0.2-1 0.4-1 0.4V36.3l0.6 0.1 0.6 0.3L118.8 36.9z"/>
</svg>