<?xml version="1.0" encoding="utf-8"?>
<!-- Generator: Adobe Illustrator 18.0.0, SVG Export Plug-In . SVG Version: 6.00 Build 0)  -->
<!DOCTYPE svg PUBLIC "-//W3C//DTD SVG 1.1//EN" "http://www.w3.org/Graphics/SVG/1.1/DTD/svg11.dtd">
<svg version="1.1" id="Calque_1" xmlns="http://www.w3.org/2000/svg" xmlns:xlink="http://www.w3.org/1999/xlink" x="0px" y="0px"
	 viewBox="-3.6 -3.4 24.5 24.9" enable-background="new -3.6 -3.4 24.5 24.9" xml:space="preserve">
<g>
	<g>
		<g>
			<defs>
				<rect id="SVGID_1_" x="0" y="0" width="17.3" height="17.3"/>
			</defs>
			<clipPath id="SVGID_2_">
				<use xlink:href="#SVGID_1_"  overflow="visible"/>
			</clipPath>
			<polygon clip-path="url(#SVGID_2_)" fill="none" stroke="#B59E5C" stroke-miterlimit="10" points="10.7,12.7 10.7,10.7 8.6,10.7 
				6.6,10.7 6.6,12.7 8.6,12.7 			"/>
		</g>
		<g>
			<defs>
				<rect id="SVGID_3_" x="0" y="0" width="17.3" height="17.3"/>
			</defs>
			<clipPath id="SVGID_4_">
				<use xlink:href="#SVGID_3_"  overflow="visible"/>
			</clipPath>
			<rect x="10.7" y="12.7" clip-path="url(#SVGID_4_)" fill="none" stroke="#B59E5C" stroke-miterlimit="10" width="2" height="2"/>
		</g>
		<g>
			<defs>
				<rect id="SVGID_5_" x="0" y="0" width="17.3" height="17.3"/>
			</defs>
			<clipPath id="SVGID_6_">
				<use xlink:href="#SVGID_5_"  overflow="visible"/>
			</clipPath>
			<rect x="4.6" y="12.7" clip-path="url(#SVGID_6_)" fill="none" stroke="#B59E5C" stroke-miterlimit="10" width="2" height="2"/>
		</g>
		<g>
			<defs>
				<rect id="SVGID_7_" x="0" y="0" width="17.3" height="17.3"/>
			</defs>
			<clipPath id="SVGID_8_">
				<use xlink:href="#SVGID_7_"  overflow="visible"/>
			</clipPath>
			<rect x="10.7" y="6.6" clip-path="url(#SVGID_8_)" fill="none" stroke="#B59E5C" stroke-miterlimit="10" width="2" height="2"/>
		</g>
		<g>
			<defs>
				<rect id="SVGID_9_" x="0" y="0" width="17.3" height="17.3"/>
			</defs>
			<clipPath id="SVGID_10_">
				<use xlink:href="#SVGID_9_"  overflow="visible"/>
			</clipPath>
			<rect x="4.6" y="6.6" clip-path="url(#SVGID_10_)" fill="none" stroke="#B59E5C" stroke-miterlimit="10" width="2" height="2"/>
		</g>
		<g>
			<defs>
				<rect id="SVGID_11_" x="0" y="0" width="17.3" height="17.3"/>
			</defs>
			<clipPath id="SVGID_12_">
				<use xlink:href="#SVGID_11_"  overflow="visible"/>
			</clipPath>
			<g clip-path="url(#SVGID_12_)">
				<g>
					<defs>
						<rect id="SVGID_13_" x="0" y="0" width="17.3" height="17.3"/>
					</defs>
					<clipPath id="SVGID_14_">
						<use xlink:href="#SVGID_13_"  overflow="visible"/>
					</clipPath>
					
						<rect x="14.8" y="14.8" clip-path="url(#SVGID_14_)" fill="none" stroke="#B59E5C" stroke-miterlimit="10" width="2" height="2"/>
				</g>
				<g>
					<defs>
						<rect id="SVGID_15_" x="0" y="0" width="17.3" height="17.3"/>
					</defs>
					<clipPath id="SVGID_16_">
						<use xlink:href="#SVGID_15_"  overflow="visible"/>
					</clipPath>
					
						<rect x="12.7" y="12.7" clip-path="url(#SVGID_16_)" fill="none" stroke="#B59E5C" stroke-miterlimit="10" width="2" height="2"/>
				</g>
				<g>
					<defs>
						<rect id="SVGID_17_" x="0" y="0" width="17.3" height="17.3"/>
					</defs>
					<clipPath id="SVGID_18_">
						<use xlink:href="#SVGID_17_"  overflow="visible"/>
					</clipPath>
					<g clip-path="url(#SVGID_18_)">
						<g>
							<defs>
								<rect id="SVGID_19_" x="0" y="0" width="17.3" height="17.3"/>
							</defs>
							<clipPath id="SVGID_20_">
								<use xlink:href="#SVGID_19_"  overflow="visible"/>
							</clipPath>
							
								<rect x="10.7" y="14.8" clip-path="url(#SVGID_20_)" fill="none" stroke="#B59E5C" stroke-miterlimit="10" width="2" height="2"/>
						</g>
						<g>
							<defs>
								<rect id="SVGID_21_" x="0" y="0" width="17.3" height="17.3"/>
							</defs>
							<clipPath id="SVGID_22_">
								<use xlink:href="#SVGID_21_"  overflow="visible"/>
							</clipPath>
							<polygon clip-path="url(#SVGID_22_)" fill="none" stroke="#B59E5C" stroke-miterlimit="10" points="8.6,12.7 6.6,12.7 
								6.6,14.8 8.6,14.8 10.7,14.8 10.7,12.7 							"/>
						</g>
						<g>
							<defs>
								<rect id="SVGID_23_" x="0" y="0" width="17.3" height="17.3"/>
							</defs>
							<clipPath id="SVGID_24_">
								<use xlink:href="#SVGID_23_"  overflow="visible"/>
							</clipPath>
							<g clip-path="url(#SVGID_24_)">
								<g>
									<defs>
										<rect id="SVGID_25_" x="0" y="0" width="17.3" height="17.3"/>
									</defs>
									<defs>
										<rect id="SVGID_26_" x="0" y="0" width="17.3" height="17.3"/>
									</defs>
									<clipPath id="SVGID_27_">
										<use xlink:href="#SVGID_25_"  overflow="visible"/>
									</clipPath>
									<clipPath id="SVGID_28_" clip-path="url(#SVGID_27_)">
										<use xlink:href="#SVGID_26_"  overflow="visible"/>
									</clipPath>
									<path clip-path="url(#SVGID_28_)" fill="none" stroke="#B59E5C" stroke-miterlimit="10" d="M14.8,6.6v-2h-2v-2h-2v-2h-2h-2
										v2h-2v2h-2v2h-2v2v2h2h2v2h2v-2h2h2v2h2v-2h2h2v-2v-2H14.8z M4.6,6.6h2v2h-2V6.6z M10.7,6.6h2v2h-2
										C10.7,8.7,10.7,6.6,10.7,6.6z"/>
									
										<rect x="0.5" y="14.8" clip-path="url(#SVGID_28_)" fill="none" stroke="#B59E5C" stroke-miterlimit="10" width="2" height="2"/>
								</g>
								<g>
									<defs>
										<rect id="SVGID_29_" x="0" y="0" width="17.3" height="17.3"/>
									</defs>
									<clipPath id="SVGID_30_">
										<use xlink:href="#SVGID_29_"  overflow="visible"/>
									</clipPath>
									
										<rect x="2.5" y="12.7" clip-path="url(#SVGID_30_)" fill="none" stroke="#B59E5C" stroke-miterlimit="10" width="2" height="2"/>
								</g>
								<g>
									<defs>
										<rect id="SVGID_31_" x="0" y="0" width="17.3" height="17.3"/>
									</defs>
									<clipPath id="SVGID_32_">
										<use xlink:href="#SVGID_31_"  overflow="visible"/>
									</clipPath>
									<g clip-path="url(#SVGID_32_)">
										<g>
											<defs>
												<rect id="SVGID_33_" x="0" y="0" width="17.3" height="17.3"/>
											</defs>
											<clipPath id="SVGID_34_">
												<use xlink:href="#SVGID_33_"  overflow="visible"/>
											</clipPath>
											
												<rect x="4.6" y="14.8" clip-path="url(#SVGID_34_)" fill="none" stroke="#B59E5C" stroke-miterlimit="10" width="2" height="2"/>
										</g>
									</g>
								</g>
							</g>
						</g>
					</g>
				</g>
			</g>
		</g>
	</g>
</g>
</svg>
