<?xml version="1.0" encoding="utf-8"?>
<!-- Generator: Adobe Illustrator 18.0.0, SVG Export Plug-In . SVG Version: 6.00 Build 0)  -->
<!DOCTYPE svg PUBLIC "-//W3C//DTD SVG 1.1//EN" "http://www.w3.org/Graphics/SVG/1.1/DTD/svg11.dtd">
<svg version="1.1" id="Calque_1" xmlns="http://www.w3.org/2000/svg" xmlns:xlink="http://www.w3.org/1999/xlink" x="0px" y="0px"
	 viewBox="-1.9 -2.1 14 24.6" enable-background="new -1.9 -2.1 14 24.6" xml:space="preserve">
<g>
	<g>
		<g>
			<defs>
				<rect id="SVGID_1_" x="0" y="0" width="10.3" height="20.4"/>
			</defs>
			<clipPath id="SVGID_2_">
				<use xlink:href="#SVGID_1_"  overflow="visible"/>
			</clipPath>
			<g clip-path="url(#SVGID_2_)">
				<g>
					<defs>
						<rect id="SVGID_3_" x="0" y="0" width="10.3" height="20.4"/>
					</defs>
					<defs>
						<rect id="SVGID_4_" x="0" y="0" width="10.3" height="20.4"/>
					</defs>
					<clipPath id="SVGID_5_">
						<use xlink:href="#SVGID_3_"  overflow="visible"/>
					</clipPath>
					<clipPath id="SVGID_6_" clip-path="url(#SVGID_5_)">
						<use xlink:href="#SVGID_4_"  overflow="visible"/>
					</clipPath>
					<path clip-path="url(#SVGID_6_)" fill="#B59E5C" d="M10.2,7.6c-0.1-0.4-1.8-0.8-2.6-1c0-0.3-0.1-0.6-0.1-0.8
						C7.4,5.4,6.4,5.3,6.4,5.3V5.3C6,5.3,5.7,5.4,5.2,5.4c-0.1,0-0.2,0-0.2,0c-0.5,0-0.7,0-1.2-0.1v0.1c0,0-0.9,0.1-1.1,0.5
						c0,0.2-0.1,0.5-0.1,0.8c-0.8,0.2-2.5,0.7-2.6,1c-0.1,0.5,0,10.4,0,10.4S0,20.4,2.5,20.4h5.2c2.5,0,2.5-2.4,2.5-2.4
						S10.3,8.1,10.2,7.6 M8.3,18.2c0,0-2,0.2-3.4,0.2s-3-0.2-3-0.2V8.9c0,0,1.4,0.1,3.4,0.1c1.9,0,3.1-0.1,3.1-0.1V18.2z"/>
					<path clip-path="url(#SVGID_6_)" fill="#B59E5C" d="M5.2,4.5c0.5,0,1,0,1.4-0.1V4H6.2V2.2C6.2,1,5.3,0,5.3,0H5.2H5H4.9
						C4.9,0,4,1,4,2.2V4H3.6v0.4C4.1,4.5,4.5,4.5,5,4.5C5.1,4.5,5.2,4.5,5.2,4.5"/>
				</g>
			</g>
		</g>
	</g>
</g>
</svg>
