<?xml version="1.0" encoding="utf-8"?>
<!-- Generator: Adobe Illustrator 18.0.0, SVG Export Plug-In . SVG Version: 6.00 Build 0)  -->
<!DOCTYPE svg PUBLIC "-//W3C//DTD SVG 1.1//EN" "http://www.w3.org/Graphics/SVG/1.1/DTD/svg11.dtd">
<svg version="1.1" xmlns="http://www.w3.org/2000/svg" xmlns:xlink="http://www.w3.org/1999/xlink" x="0px" y="0px"
	 viewBox="0 0 65.4 88.8" enable-background="new 0 0 65.4 88.8" xml:space="preserve">
<g id="Calque_2">
	<g>
		<g>
			<path fill="#B59E5C" d="M55.9,15.3c-11.4-11.4-29.8-11.4-41.2,0C3.3,26.7,5.4,44.7,13.3,57.2c0,0,4.6,15.3,18,31.5
				c17.9-17.4,25.1-31.2,25.1-31.2C64.6,41.6,67.3,26.7,55.9,15.3z M35.3,47.6c-6.4,0-11.6-5.2-11.6-11.7c0-6.4,5.2-11.7,11.6-11.7
				c6.5,0,11.7,5.2,11.7,11.7C47,42.4,41.8,47.6,35.3,47.6z"/>
		</g>
	</g>
</g>
<g id="Layer_1">
	<g>
		<g>
			<path d="M51.8,15.3C40.4,3.9,22,3.9,10.6,15.3C-0.8,26.7,1.3,44.7,9.2,57.2c0,0,8.7,15.3,22.1,31.5c13.7-16.7,21-31.2,21-31.2
				C60.5,41.6,63.2,26.7,51.8,15.3z M31.2,47.6c-6.4,0-11.6-5.2-11.6-11.7c0-6.4,5.2-11.7,11.6-11.7c6.5,0,11.7,5.2,11.7,11.7
				C42.9,42.4,37.6,47.6,31.2,47.6z"/>
		</g>
	</g>
</g>
</svg>
