<?xml version="1.0" encoding="utf-8"?>
<!-- Generator: Adobe Illustrator 18.0.0, SVG Export Plug-In . SVG Version: 6.00 Build 0)  -->
<!DOCTYPE svg PUBLIC "-//W3C//DTD SVG 1.1//EN" "http://www.w3.org/Graphics/SVG/1.1/DTD/svg11.dtd">
<svg version="1.1" id="Calque_1" xmlns="http://www.w3.org/2000/svg" xmlns:xlink="http://www.w3.org/1999/xlink" x="0px" y="0px"
	 viewBox="0 0 595.3 841.9" enable-background="new 0 0 595.3 841.9" xml:space="preserve">
<g id="Calque_2">
	<g>
		<g>
			<path d="M508.8,156.1c-103.8-103.8-271.2-103.8-375,0s-84.6,267.6-12.7,381.4c0,0,41.9,139.3,163.8,286.7
				c162.9-158.4,228.5-284,228.5-284C588,395.5,612.6,259.8,508.8,156.1z M321.3,450.1c-58.3,0-105.6-47.3-105.6-106.5
				c0-58.3,47.3-106.5,105.6-106.5c59.2,0,106.5,47.3,106.5,106.5C427.8,402.7,380.5,450.1,321.3,450.1z"/>
		</g>
	</g>
</g>
<g id="Layer_1">
	<g>
		<g>
			<path fill="#B59E5C" d="M471.5,156.1c-103.8-103.8-271.2-103.8-375,0S11.8,423.7,83.7,537.5c0,0,79.2,139.3,201.2,286.7
				c124.7-152,191.1-284,191.1-284C550.7,395.5,575.3,259.8,471.5,156.1z M284,450.1c-58.3,0-105.6-47.3-105.6-106.5
				c0-58.3,47.3-106.5,105.6-106.5c59.2,0,106.5,47.3,106.5,106.5C390.5,402.7,342.2,450.1,284,450.1z"/>
		</g>
	</g>
</g>
</svg>
