<?xml version="1.0" encoding="utf-8"?>
<!-- Generator: Adobe Illustrator 18.0.0, SVG Export Plug-In . SVG Version: 6.00 Build 0)  -->
<!DOCTYPE svg PUBLIC "-//W3C//DTD SVG 1.1//EN" "http://www.w3.org/Graphics/SVG/1.1/DTD/svg11.dtd">
<svg version="1.1" id="Calque_1" xmlns="http://www.w3.org/2000/svg" xmlns:xlink="http://www.w3.org/1999/xlink" x="0px" y="0px"
	 viewBox="0 0 1440 800" enable-background="new 0 0 1440 800" xml:space="preserve">
<g id="Calque_2">
	<g>
		<g>
			<path d="M929,137.8c-102.7-102.7-268.5-102.7-371.2,0s-83.8,264.9-12.6,377.5c0,0,41.4,137.8,162.2,283.8
				C868.6,642.3,933.5,518,933.5,518C1007.4,374.8,1031.7,240.5,929,137.8z M743.4,428.8c-57.7,0-104.5-46.8-104.5-105.4
				c0-57.7,46.8-105.4,104.5-105.4c58.6,0,105.4,46.8,105.4,105.4C848.8,382,802,428.8,743.4,428.8z"/>
		</g>
	</g>
</g>
<g id="Layer_1">
	<g>
		<g>
			<path fill="#B59E5C" d="M892.1,137.8c-102.7-102.7-268.5-102.7-371.2,0s-83.8,264.9-12.6,377.5c0,0,78.4,137.8,199.1,283.8
				C830.8,648.6,896.6,518,896.6,518C970.5,374.8,994.8,240.5,892.1,137.8z M706.5,428.8C648.8,428.8,602,382,602,323.4
				c0-57.7,46.8-105.4,104.5-105.4c58.6,0,105.4,46.8,105.4,105.4C811.9,382,764.1,428.8,706.5,428.8z"/>
		</g>
	</g>
</g>
</svg>
