<?xml version="1.0" encoding="utf-8"?>
<!-- Generator: Adobe Illustrator 18.0.0, SVG Export Plug-In . SVG Version: 6.00 Build 0)  -->
<!DOCTYPE svg PUBLIC "-//W3C//DTD SVG 1.1//EN" "http://www.w3.org/Graphics/SVG/1.1/DTD/svg11.dtd">
<svg version="1.1" id="Calque_1" xmlns="http://www.w3.org/2000/svg" xmlns:xlink="http://www.w3.org/1999/xlink" x="0px" y="0px"
	 viewBox="0 0 49.6 49.2" enable-background="new 0 0 49.6 49.2" xml:space="preserve">
<rect x="5.8" y="6.5" transform="matrix(-0.9907 -0.1359 0.1359 -0.9907 45.9151 53.727)" fill="none" width="37.9" height="37.6"/>
<path fill="none" stroke="#B59E5C" stroke-miterlimit="10" d="M41.9,26.4L26.5,42.2l7.1-0.1c4.7,0,8.4-3.9,8.4-8.6L41.9,26.4z"/>
<rect x="5.8" y="6.5" transform="matrix(-0.9907 -0.1359 0.1359 -0.9907 45.9151 53.727)" fill="none" width="37.9" height="37.6"/>
<path fill="#B59E5C" stroke="#B59E5C" stroke-miterlimit="10" d="M41.5,16.6c0-4.7-3.9-8.4-8.6-8.4L16,8.4c-4.7,0-8.4,3.9-8.4,8.6
	l0.2,17c0,4.7,3.9,8.5,8.6,8.4l7-0.1l-0.1-10.1c0-4.7,3.7-8.5,8.4-8.6l9.9-0.1L23.3,42.3l18.3-18.8L41.5,16.6z"/>
</svg>
